<?xml version="1.0" encoding="utf-8"?>
<!-- Generator: Adobe Illustrator 16.0.0, SVG Export Plug-In . SVG Version: 6.00 Build 0)  -->
<!DOCTYPE svg PUBLIC "-//W3C//DTD SVG 1.1//EN" "http://www.w3.org/Graphics/SVG/1.1/DTD/svg11.dtd">
<svg version="1.1" id="Layer_1" xmlns="http://www.w3.org/2000/svg" xmlns:xlink="http://www.w3.org/1999/xlink" x="0px" y="0px"
	 width="512px" height="512px" viewBox="0 0 512 512" enable-background="new 0 0 512 512" xml:space="preserve">
<g>
	<polygon fill-rule="evenodd" clip-rule="evenodd" fill="#AC3A2C" points="63.148,197.955 446.604,199.257 418.289,347.097 
		93.592,349.701 	"/>
	<path fill-rule="evenodd" clip-rule="evenodd" fill="#D95344" d="M330.746,299.357l-4.383,37.195
		c-0.592,4.856-4.975,8.411-9.832,7.819c-4.855-0.592-8.41-4.975-7.818-9.831l4.383-37.199l2.016-17.059h17.65L330.746,299.357z
		 M424.215,204.709h18.479l-8.174,40.986l17.887,13.859l16.822-87.661h26.416c0,0,0.355-9.121,0.355-19.663
		c0-10.664-9.83-12.676-9.83-12.676H255.998H25.834c0,0-9.834,2.012-9.834,12.676c0,10.542,0.359,19.663,0.359,19.663h26.297
		l16.938,87.661l17.887-13.859l-8.174-40.986h18.479l5.57,28.665l29.617-22.862l-0.834-5.803h8.293l42.41-32.816l31.273-24.164
		c16.107-10.664,31.746,9.95,18.834,22.98l-47.381,34h13.148l6.154,57.804h-17.768l-6.633-54.135l-27.244,19.43l4.383,34.705
		h-18.006l-2.959-22.858L98.449,259.91l0.473,2.604h-4.027l-30.563,21.916l13.863,72.5c0,0,2.248,14.924,26.771,15.516h151.031
		h151.039c24.52-0.592,26.771-15.516,26.771-15.516l13.859-72.5l-30.563-21.916h-4.027l0.473-2.604l-28.191-20.254l-2.963,22.858
		h-18.006l4.383-34.705l-27.244-19.43l-6.637,54.135h-17.77l6.164-57.804h13.148l-47.385-34
		c-12.439-12.439,1.301-31.865,16.703-24.286c0.711,0.359,1.42,0.833,2.131,1.306l31.273,24.164l42.41,32.816h8.293l-0.83,5.803
		l29.613,22.862L424.215,204.709z M285.969,280.282v17.65v37.436c0,4.856-4.027,8.885-9.002,8.885c-4.857,0-8.885-4.028-8.885-8.885
		v-37.436v-17.65H285.969z M285.969,262.513h-17.887v-57.804h17.887V262.513z M355.389,334.303l4.619-37.199l2.131-16.822h17.891
		l-2.371,19.075l-4.619,37.195c-0.592,4.856-5.094,8.293-9.951,7.701C358.232,343.661,354.797,339.16,355.389,334.303
		L355.389,334.303z M399.455,332.524l7.109-36.721l3.076-15.521h18.125l-3.67,18.838l-7.109,36.839
		c-0.945,4.738-5.566,7.938-10.422,6.991C401.703,342,398.627,337.38,399.455,332.524L399.455,332.524z M243.918,280.282v17.65
		v37.436c0,4.856-4.027,8.885-9.002,8.885c-4.857,0-8.889-4.028-8.889-8.885v-37.436v-17.65H243.918z M243.918,262.513h-17.891
		v-57.804h17.891V262.513z M198.904,297.341l4.383,37.199c0.588,4.856-2.963,9.239-7.82,9.831c-4.855,0.592-9.238-2.963-9.834-7.819
		l-4.383-37.195l-2.012-19.075h17.65L198.904,297.341z M149.857,280.282l2.135,16.822l4.619,37.199
		c0.592,4.856-2.844,9.358-7.701,9.95c-4.855,0.592-9.357-2.845-9.949-7.701l-4.619-37.195l-2.367-19.075H149.857z M105.439,295.803
		l6.986,36.721c0.947,4.856-2.129,9.476-6.986,10.427c-4.855,0.947-9.477-2.252-10.428-6.991l-7.104-36.839l-3.674-18.838h18.125
		L105.439,295.803z"/>
	<path fill-rule="evenodd" clip-rule="evenodd" fill="#C84C3F" d="M59.594,171.894c0,0,1.779-4.383,10.781-4.501
		c9.004-0.237,420.414,0,420.414,0V153.77c0,0,0.236-2.485,2.84-2.604c0,0,2.371-0.241,2.371,2.485s-0.355,18.242-0.355,18.242
		H59.594z"/>
	<path fill-rule="evenodd" clip-rule="evenodd" fill="#C84C3F" d="M69.307,204.709c0,0,0.596-4.146,4.619-4.146
		c4.031,0,10.424,0,10.424,0s2.611-0.237,3.436,4.146H69.307z M122.139,204.709c0,0,2.846-4.146,6.873-4.146
		c4.023,0,13.979,0,13.979,0l-12.559,4.146H122.139z M188.717,204.709c0,0-1.541-3.792-7.107-4.146c-5.689-0.473-11.375,0-11.375,0
		v3.91L188.717,204.709z M424.215,204.709c0,0,2.484-4.146,8.17-4.146c5.689,0,4.975,0,4.975,0s4.861,0.237,5.334,4.146H424.215z
		 M371.617,204.591c0,0,1.422-4.028,5.805-4.028s5.092,0,5.092,0s6.518,0.118,7.348,4.146L371.617,204.591z M323.287,204.709
		c0,0,2.604-4.146,8.055-4.146c5.566,0,7.461,0,7.461,0l-2.367,4.146H323.287z M268.082,204.709c0,0,1.543-4.146,6.162-4.146
		c4.502,0,6.395,0,6.395,0s5.33-0.355,5.33,4.146H268.082z M226.027,204.709c0,0,2.488-4.146,5.926-4.146c3.436,0,7.346,0,7.346,0
		s4.619-0.118,4.619,4.146H226.027z"/>
	<path fill-rule="evenodd" clip-rule="evenodd" fill="#C84C3F" d="M94.658,171.894H42.656l2.131,10.9h409.039l-32.338,169.751l0,0
		c0,0-4.027,10.778-12.439,10.66c-8.529-0.118-209.672,0-209.672,0s-9.361,0.592-11.373,9.24h1.424h66.57h151.039
		c0.475,0,0.828,0,1.184,0h0.119l0,0c12.084-0.592,18.479-4.738,21.914-8.648l-0.473-0.355c1.775-1.775,3.076-3.91,4.027-6.513
		c4.621-14.214,13.859-72.5,13.859-72.5l21.561-112.535H94.658z"/>
	<polygon fill-rule="evenodd" clip-rule="evenodd" fill="#AC3A2C" points="43.719,177.342 468.16,177.342 469.229,171.894 
		42.656,171.894 	"/>
	<path fill-rule="evenodd" clip-rule="evenodd" fill="#D0D0D0" d="M212.641,164.789c-2.959,0-5.33-2.371-5.33-5.334
		c0-2.84,2.371-5.211,5.33-5.211c2.85,0,5.215,2.371,5.215,5.211C217.855,162.417,215.49,164.789,212.641,164.789L212.641,164.789z
		 M307.885,147.729c-16.107-10.664-31.746,9.95-18.834,22.98l47.385,34l5.094,3.669l27.244,19.43l16.586,11.847l28.191,20.254
		l3.555,2.604l30.563,21.916l11.016,7.819c16.822,12.202,29.498-5.093,15.875-15.635l-22.152-17.059l-17.887-13.859l-15.875-12.321
		l-29.613-22.862l-7.463-5.803l-42.41-32.816L307.885,147.729z M299.592,154.243c2.963,0,5.215,2.371,5.215,5.211
		c0,2.963-2.252,5.334-5.215,5.334c-2.959,0-5.33-2.371-5.33-5.334C294.262,156.614,296.633,154.243,299.592,154.243
		L299.592,154.243z M172.842,171.894l-42.41,32.816l-7.459,5.803l-29.617,22.862L77.48,245.695l-17.887,13.859l-22.152,17.059
		c-13.623,10.542-0.947,27.837,15.875,15.635l11.016-7.819l30.563-21.916l3.555-2.604l28.195-20.254l16.582-11.847l27.244-19.43
		l5.098-3.669l47.381-34c12.912-13.031-2.727-33.644-18.834-22.98L172.842,171.894z"/>
	<path fill-rule="evenodd" clip-rule="evenodd" fill="#BCBCBB" d="M305.754,146.424l-5.807,7.819h-0.355
		c-2.959,0-5.33,2.371-5.33,5.211c0,0.714,0.119,1.306,0.355,1.779l0,0l0,0c0.709,2.012,2.488,3.436,4.738,3.555l168.33,126.039
		c0,0,9.6,3.673,12.559-2.844c-0.947,7.346-10.305,12.439-21.561,4.265l-11.016-7.819l-30.563-21.916l-3.555-2.604l-28.191-20.254
		l-16.586-11.847l-27.244-19.43l-5.094-3.669l-47.385-34C276.611,158.271,290.352,138.845,305.754,146.424L305.754,146.424z"/>
	<path fill-rule="evenodd" clip-rule="evenodd" fill="#BCBCBB" d="M206.486,146.424l5.803,7.819h0.352
		c2.85,0,5.215,2.371,5.215,5.211c0,0.714-0.117,1.306-0.236,1.779l0,0l0,0c-0.709,2.012-2.607,3.436-4.738,3.555L44.551,290.828
		c0,0-9.713,3.673-12.559-2.844c0.83,7.346,10.188,12.439,21.561,4.265l10.896-7.819l30.682-21.916l3.555-2.604l28.195-20.254
		l16.582-11.847l27.127-19.43l5.215-3.669l47.381-34C235.508,158.271,221.766,138.845,206.486,146.424L206.486,146.424z"/>
	<path fill-rule="evenodd" clip-rule="evenodd" fill="#364A5D" d="M299.592,166.09c3.672,0,6.635-2.963,6.635-6.636
		c0-3.55-2.963-6.632-6.635-6.632c-3.67,0-6.633,3.082-6.633,6.632C292.959,163.127,295.922,166.09,299.592,166.09L299.592,166.09z"
		/>
	<path fill-rule="evenodd" clip-rule="evenodd" fill="#263B4B" d="M299.592,164.789c2.844,0,5.334-2.371,5.334-5.334
		c0-2.84-2.49-5.211-5.334-5.211c-2.959,0-5.33,2.371-5.33,5.211C294.262,162.417,296.633,164.789,299.592,164.789L299.592,164.789z
		"/>
	<path fill-rule="evenodd" clip-rule="evenodd" fill="#364A5D" d="M212.641,166.09c3.559,0,6.637-2.963,6.637-6.636
		c0-3.55-3.078-6.632-6.637-6.632c-3.668,0-6.631,3.082-6.631,6.632C206.01,163.127,208.973,166.09,212.641,166.09L212.641,166.09z"
		/>
	<path fill-rule="evenodd" clip-rule="evenodd" fill="#263B4B" d="M212.641,164.789c2.85,0,5.215-2.371,5.215-5.334
		c0-2.84-2.365-5.211-5.215-5.211c-2.959,0-5.33,2.371-5.33,5.211C207.311,162.417,209.682,164.789,212.641,164.789L212.641,164.789
		z"/>
</g>
</svg>
